<svg xmlns="http://www.w3.org/2000/svg" xmlns:xlink="http://www.w3.org/1999/xlink" fill="none" version="1.1" width="16" height="16" viewBox="0 0 16 16"><defs><clipPath id="master_svg0_1_064"><rect x="0" y="0" width="16" height="16" rx="0"/></clipPath></defs><g clip-path="url(#master_svg0_1_064)"><g><path d="M14.49029765625,4.7469L10.25060765625,4.7469L10.25060765625,0.784547C10.25060765625,0.348687,9.89399765625,0,9.46605765625,0L6.54183765625,0C6.10597765625,0,5.75728765625,0.356612,5.75728765625,0.784547L5.75728765625,4.7469L1.5096446562499999,4.7469C1.07378465625,4.7469,0.72509765625,5.10352,0.72509765625,5.53145L0.72509765625,8.45567C0.72509765625,8.89153,1.08170965625,9.24022,1.5096446562499999,9.24022L2.73797765625,9.24022L2.73797765625,15.2155C2.73797765625,15.6513,3.09458765625,16,3.52251765625,16L12.61219765625,16C13.04799765625,16,13.39669765625,15.6434,13.39669765625,15.2155L13.39669765625,9.24022L14.48239765625,9.24022C14.91829765625,9.24022,15.26699765625,8.88361,15.26699765625,8.45567L15.26699765625,5.53938C15.27489765625,5.10352,14.91829765625,4.7469,14.49029765625,4.7469ZM10.33777765625,10.1199C9.90191765625,10.1199,9.55322765625,10.4765,9.55322765625,10.9044L9.55322765625,14.4309L8.86377765625,14.4309L8.86377765625,12.101C8.86377765625,11.6652,8.507167656250001,11.3165,8.079237656250001,11.3165C7.65129765625,11.3165,7.29468765625,11.6731,7.29468765625,12.101L7.29468765625,14.4309L6.60523765625,14.4309L6.60523765625,12.9569C6.60523765625,12.521,6.24862765625,12.1724,5.82068765625,12.1724C5.39275765625,12.1724,5.03614765625,12.529,5.03614765625,12.9569L5.03614765625,14.4309L4.3308476562500005,14.4309L4.3308476562500005,9.24022L11.84349765625,9.24022L11.84349765625,14.4309L11.13819765625,14.4309L11.13819765625,10.9044C11.12229765625,10.4685,10.76569765625,10.1199,10.33777765625,10.1199ZM7.32638765625,5.53938L7.32638765625,1.57702L8.67358765625,1.57702L8.67358765625,5.53938C8.67358765625,5.97524,9.03019765625,6.32392,9.45813765625,6.32392L13.69789765625,6.32392L13.69789765625,7.67112L2.30211765625,7.67112L2.30211765625,6.32392L6.54183765625,6.32392C6.96977765625,6.32392,7.32638765625,5.96731,7.32638765625,5.53938Z" fill="#FFFFFF" fill-opacity="1"/></g></g></svg>