<svg xmlns="http://www.w3.org/2000/svg" xmlns:xlink="http://www.w3.org/1999/xlink" fill="none" version="1.1" width="56.498008728027344" height="37.00001525878906" viewBox="0 0 56.498008728027344 37.00001525878906"><g><path d="M22.849,7.166L22.849,0L33.648,0L33.648,7.166L42.648,7.166L28.248,21.495L13.85,7.16499L22.849,7.16499L22.849,7.166ZM6.711,30.32L49.787,30.32L49.787,12.34C49.7914,10.491,51.294,8.99561,53.143,9.00002C54.9917,8.99615,56.4936,10.4914,56.498,12.34L56.498,33.66C56.4936,35.5087,54.9917,37.0039,53.143,37L3.356,37C1.50695,37.0044,0.00442314,35.509,0,33.66L0,12.34C0.00441742,10.491,1.50695,8.99559,3.356,9C5.20466,8.99612,6.70658,10.4913,6.711,12.34L6.711,30.32L6.711,30.32ZM9.24,25.158L9.24,23.726L47.256,23.726L47.256,25.158L9.24,25.158ZM9.24,28.024L9.24,26.592L47.256,26.592L47.256,28.024L9.24,28.024Z" fill="#40444F" fill-opacity="1"/></g></svg>