<svg xmlns="http://www.w3.org/2000/svg" xmlns:xlink="http://www.w3.org/1999/xlink" fill="none" version="1.1" width="25.750396728515625" height="18.889984130859375" viewBox="0 0 25.750396728515625 18.889984130859375"><g><path d="M25.75,13.74C25.75,15.16,25.25,16.38,24.24,17.38C23.23,18.39,22.02,18.89,20.6,18.89L6.01001,18.89C4.36002,18.89,2.94,18.3,1.76001,17.13C0.580017,15.95,0,14.54,0,12.88C0,11.72,0.309998,10.64,0.940002,9.65997C1.57001,8.67996,2.41,7.93997,3.45999,7.44998C3.44363,7.25705,3.43362,7.0636,3.42999,6.87C3.42999,4.97,4.10001,3.35999,5.44,2.01001C6.78,0.670013,8.39999,0,10.3,0C11.7,0,12.97,0.390015,14.13,1.17001C15.29,1.95001,16.13,2.98001,16.66,4.27002C17.3,3.72003,18.04,3.44003,18.89,3.44003C19.84,3.44003,20.65,3.78003,21.32,4.45004C21.99,5.12006,22.32,5.93005,22.32,6.88004C22.32,7.56003,22.14,8.18002,21.77,8.73004C22.93,9.01004,23.89,9.61005,24.63,10.55C25.3676,11.4481,25.7643,12.5779,25.75,13.74ZM17.16,10.74C17.1632,10.6247,17.12,10.513,17.04,10.43C16.958,10.3484,16.8456,10.3049,16.73,10.31L13.73,10.31L13.73,5.58997C13.7342,5.47546,13.6864,5.36523,13.6,5.28998C13.5224,5.20694,13.4138,5.15985,13.3,5.15997L10.7201,5.15997C10.6056,5.15582,10.4953,5.20358,10.4201,5.28998C10.3301,5.36996,10.2901,5.47998,10.2901,5.58997L10.2901,10.31L7.29007,10.31C7.17557,10.3059,7.06534,10.3536,6.99008,10.44C6.82028,10.6062,6.81583,10.8782,6.98007,11.05L11.7001,15.77C11.7801,15.8499,11.8801,15.89,12.0101,15.89C12.1401,15.89,12.2401,15.8499,12.3201,15.77L17.0301,11.06C17.1093,10.9716,17.1553,10.8585,17.16,10.74Z" fill-rule="evenodd" fill="#FFFFFF" fill-opacity="1"/></g></svg>