<svg xmlns="http://www.w3.org/2000/svg" xmlns:xlink="http://www.w3.org/1999/xlink" fill="none" version="1.1" width="700" height="700" viewBox="0 0 700 700"><defs><clipPath id="master_svg0_3392_0038"><rect x="0" y="0" width="700" height="700" rx="0"/></clipPath></defs><g clip-path="url(#master_svg0_3392_0038)"><g><path d="M632.34246875,114.903328125L606.91246875,88.99512812500001C576.69746875,58.233398125,527.3424687500001,58.233398125,497.12746875,88.99512812500001L485.30146875,101.094728125C474.29546875,112.305628125,467.25446875,126.18262812500001,464.31446875,140.743128125C457.61546875,137.94042812499998,450.71146875,135.342728125,443.60246875,133.018528125C413.86546875,123.243128125,382.28346875,118.252928125,349.81346875,118.252928125C317.34246875,118.252928125,285.76046875,123.243128125,256.02346875,133.018528125C246.72746875,136.09472812500002,237.70346875,139.581028125,228.95346875,143.477528125C226.28746875,125.704128125,218.22146875,108.614228125,204.89146875,95.010728125C171.46346875,60.899408125,116.70746875,60.899408125,83.27976875,95.010728125L69.67626874999999,108.887728125C36.24853875,142.999028125,36.24853875,198.779828125,69.67626874999999,232.891828125C82.45946875,245.947828125,98.31886875000001,253.945828125,114.93016875,257.022828125C107.95756875000001,275.342828125,104.47116875,294.414828125,104.47116875,313.897828125L104.47116875,316.289828125C104.67626874999999,329.004828125,102.48876874999999,342.197828125,98.04536875,355.391828125C91.55126874999999,374.736828125,88.20166875000001,394.834828125,88.20166875000001,415.137828125C88.20166875000001,445.283828125,95.37936875,474.473828125,109.46146875,501.953828125C122.92826875,528.067828125,142.06886874999998,551.514828125,166.40446875,571.475828125C190.39846875,591.231828125,218.28946875,606.680828125,249.25646875,617.412828125C281.11146875,628.487828125,314.88146875,634.092828125,349.67646875,634.092828125C384.47146875,634.092828125,418.24046875,628.487828125,450.09646875,617.412828125C481.06346875,606.612828125,508.95346875,591.162828125,532.94746875,571.475828125C557.28346875,551.446828125,576.42446875,528.067828125,589.89146875,501.953828125C604.04146875,474.473828125,611.15046875,445.283828125,611.15046875,415.137828125C611.15046875,394.834828125,607.86946875,374.737828125,601.30746875,355.391828125C596.86346875,342.129828125,594.67646875,329.004828125,594.88146875,316.289828125L594.88146875,313.897828125C594.88146875,295.235828125,591.66846875,276.983828125,585.31146875,259.414828125C598.16246875,255.996828125,610.26246875,249.160828125,620.31146875,238.975828125L632.13746875,226.875828125C662.48846875,196.045828125,662.48846875,145.665028125,632.34246875,114.903328125Z" fill="#5FB214" fill-opacity="1"/></g><g><path d="M582.25228125,361.69356640625C577.26128125,346.79156640625,574.45928125,331.20556640625,574.73228125,315.48256640625L574.73228125,313.43256640625C574.73228125,216.90866640625,474.03928125,138.70556640625,349.89828124999997,138.70556640625C225.75828124999998,138.70556640625,125.06448125,216.90866640625,125.06448125,313.43256640625L125.06448125,315.48256640625C125.26948125,331.20556640625,122.53518125,346.79156640625,117.54492125,361.69356640625C111.87109125,378.57856640625,108.86328125,396.35256640625,108.86328125,414.67256640625C108.86328125,524.1155664062501,216.80228125,612.8465664062501,349.89828124999997,612.8465664062501C482.99428125,612.8465664062501,590.9332812499999,524.1155664062501,590.9332812499999,414.67256640625C590.9332812499999,396.35256640625,587.92528125,378.57856640625,582.25228125,361.69356640625Z" fill="#FFFFFF" fill-opacity="1"/></g><g><path d="M349.79540625000004,588.2238515624999C221.68940625,588.2238515624999,116.96288625,506.1238515625,109.16992025,402.4228932858C108.89648625,406.4561115625,108.69140625,410.5576715625,108.69140625,414.6592515625C108.69140625,524.1028515625001,216.63040625,612.8328515625,349.72640624999997,612.8328515625C482.82240625,612.8328515625,590.7614062499999,524.1028515625001,590.7614062499999,414.6591515625C590.7614062499999,410.5576315625,590.62540625,406.45607156250003,590.28340625,402.4228515625C582.6274062499999,506.1238515625,477.83240625,588.2238515624999,349.79540625000004,588.2238515624999Z" fill="#E0E0E0" fill-opacity="1"/></g><g><path d="M415.23055,404.5797265625C448.60115,437.9497265625,493.96125,446.6917265625,516.54625,424.1067265625C539.1302499999999,401.5217265625,530.38625,356.1611265625,497.01625,322.7916265625C463.64545,289.4222565625,418.28495,280.6799265625,395.70055,303.2652265625C373.11605,325.8504265625,381.85999,371.2105265625,415.23055,404.5797265625Z" fill="#DBDBDB" fill-opacity="1"/></g><g><path d="M282.92253125,404.53727734375C316.32653125,371.16517734375,325.09053125,325.77867734375,302.49453125,303.18097734375C279.89753125,280.58327734375,234.51033124999998,289.34573734375,201.13683125,322.74927734375C167.73221125,356.12157734375,158.96813125,401.50827734375,181.56503125,424.10527734375C204.16203124999998,446.70327734374996,249.54883125,437.94127734375,282.92253125,404.53727734375Z" fill="#DBDBDB" fill-opacity="1"/></g><g><path d="M415.089075,393.9935390625C448.461675,427.3865390625,493.840375,436.1435390625,516.434375,413.5495390625C539.027375,390.9555390625,530.269375,345.5763390625,496.874375,312.2048390625C463.501875,278.8113690625,418.122775,270.0548390625,395.529575,292.6488390625C372.936275,315.2429390625,381.694455,360.6217390625,415.089075,393.9935390625Z" fill="#5FB214" fill-opacity="1"/></g><g><path d="M282.87953125,393.9840234375C316.24953125,360.6148234375,324.99353125,315.2546234375,302.40953125,292.6694234375C279.82453125,270.0842234375,234.46443125000002,278.8265734375,201.09393125,312.1960234375C167.72329125,345.5654234375,158.97933125,390.9260234375,181.56383125,413.5110234375C204.14823125,436.0960234375,249.50873124999998,427.3540234375,282.87953125,393.9840234375Z" fill="#5FB214" fill-opacity="1"/></g><g><path d="M268.20700625,346.6592171875Q268.20700625,347.2432171875,268.17840625,347.8264171875Q268.14970625,348.4097171875,268.09250625,348.9909171875Q268.03520625,349.5721171875,267.94950625,350.1497171875Q267.86390625,350.7274171875,267.74990625,351.3002171875Q267.63600625,351.8729171875,267.49410625,352.4394171875Q267.35220625,353.0059171875,267.18270625,353.5648171875Q267.01320625,354.1236171875,266.81640625,354.6735171875Q266.61970625,355.2233171875,266.39620625,355.7628171875Q266.17270625,356.3024171875,265.92300625,356.8303171875Q265.67330625,357.35821718750003,265.39800625,357.8733171875Q265.12280625,358.3883171875,264.82250625,358.8892171875Q264.52230625,359.3901171875,264.19780625,359.8757171875Q263.87340625,360.3612171875,263.52550625,360.8303171875Q263.17760625,361.2994171875,262.80720625,361.7508171875Q262.43670625,362.20221718749997,262.04450625,362.6349171875Q261.65230625,363.0676171875,261.23940625,363.4806171875Q260.82640625,363.8935171875,260.39370625,364.2857171875Q259.96100624999997,364.6779171875,259.50960625,365.0484171875Q259.05820625,365.4188171875,258.58910625,365.7667171875Q258.12000625,366.1146171875,257.63450625,366.4390171875Q257.14890625,366.7635171875,256.64800625,367.0637171875Q256.14710625,367.3640171875,255.63210625,367.6392171875Q255.11700625,367.9145171875,254.58910625,368.1642171875Q254.06120625,368.4139171875,253.52160625,368.6374171875Q252.98210625000002,368.8609171875,252.43230625,369.0576171875Q251.88240625,369.2544171875,251.32360625,369.4239171875Q250.76470625,369.5934171875,250.19820625,369.7353171875Q249.63170625,369.8772171875,249.05900625,369.9911171875Q248.48620625,370.1051171875,247.90850625,370.1907171875Q247.33090625,370.2764171875,246.74970625,370.3337171875Q246.16850625,370.3909171875,245.58520625,370.4196171875Q245.00200625,370.4482171875,244.41800625,370.4482171875Q243.83400625000002,370.4482171875,243.25070625,370.4196171875Q242.66740625,370.3909171875,242.08620625,370.3337171875Q241.50510625,370.2764171875,240.92740625,370.1907171875Q240.34970625,370.1051171875,239.77690625,369.9911171875Q239.20420625,369.8772171875,238.63770625,369.7353171875Q238.07120625,369.5934171875,237.51240625,369.4239171875Q236.95350625,369.2544171875,236.40370625,369.0576171875Q235.85380625,368.8609171875,235.31430625,368.6374171875Q234.77470625,368.4139171875,234.24680625,368.1642171875Q233.71890625,367.9145171875,233.20390625,367.6392171875Q232.68880625,367.3640171875,232.18790625,367.0637171875Q231.68700625,366.7635171875,231.20150625,366.4390171875Q230.71590625,366.1146171875,230.24684625,365.7667171875Q229.77777625,365.4188171875,229.32634625,365.0484171875Q228.87491625,364.6779171875,228.44220625,364.2857171875Q228.00950625,363.8935171875,227.59656625,363.4806171875Q227.18361625,363.0676171875,226.79143625,362.6349171875Q226.39925625,362.20221718749997,226.02877625,361.7508171875Q225.65829625,361.2994171875,225.31041625,360.8303171875Q224.96253625,360.3612171875,224.63808625,359.8757171875Q224.31363625,359.3901171875,224.01340625,358.8892171875Q223.71317625,358.3883171875,223.43788625,357.8733171875Q223.16259625,357.35821718750003,222.91290625,356.8303171875Q222.66322625,356.3024171875,222.43973625,355.7628171875Q222.21625625,355.2233171875,222.01951625,354.6735171875Q221.82277625,354.1236171875,221.65325625,353.5648171875Q221.48373225,353.0059171875,221.34183425,352.4394171875Q221.19993725,351.8729171875,221.08600625,351.3002171875Q220.97207625,350.7274171875,220.88638725,350.1497171875Q220.80069825,349.5721171875,220.74345725,348.9909171875Q220.68621615,348.4097171875,220.65756125,347.8264171875Q220.62890625,347.2432171875,220.62890625,346.6592171875Q220.62890625,346.0752171875,220.65756125,345.4919171875Q220.68621615,344.9086171875,220.74345725,344.3274171875Q220.80069825,343.7463171875,220.88638725,343.1686171875Q220.97207625,342.5909171875,221.08600625,342.0181171875Q221.19993725,341.44541718749997,221.34183425,340.8789171875Q221.48373225,340.3124171875,221.65325625,339.7536171875Q221.82277625,339.1947171875,222.01951625,338.6449171875Q222.21625625,338.0950171875,222.43973625,337.5555171875Q222.66322625,337.0159171875,222.91290625,336.4880171875Q223.16259625,335.9601171875,223.43788625,335.4451171875Q223.71317625,334.9300171875,224.01340625,334.4291171875Q224.31363625,333.9282171875,224.63808625,333.4427171875Q224.96253625,332.9571171875,225.31041625,332.4880571875Q225.65829625,332.0189871875,226.02877625,331.56755718750003Q226.39925625,331.1161271875,226.79143625,330.6834171875Q227.18361625,330.2507171875,227.59656625,329.8377771875Q228.00950625,329.4248271875,228.44220625,329.0326471875Q228.87491625,328.6404671875,229.32634625,328.2699871875Q229.77777625,327.8995071875,230.24684625,327.5516271875Q230.71590625,327.2037471875,231.20150625,326.8792971875Q231.68700625,326.5548471875,232.18790625,326.2546171875Q232.68880625,325.9543871875,233.20390625,325.6790971875Q233.71890625,325.4038071875,234.24680625,325.1541171875Q234.77470625,324.9044371875,235.31430625,324.6809471875Q235.85380625,324.4574671875,236.40370625,324.2607271875Q236.95350625,324.0639871875,237.51240625,323.8944671875Q238.07120625,323.7249431875,238.63770625,323.5830451875Q239.20420625,323.4411481875,239.77690625,323.3272171875Q240.34970625,323.2132871875,240.92740625,323.1275981875Q241.50510625,323.0419091875,242.08620625,322.9846681875Q242.66740625,322.9274270875,243.25070625,322.8987721875Q243.83400625000002,322.8701171875,244.41800625,322.8701171875Q245.00200625,322.8701171875,245.58520625,322.8987721875Q246.16850625,322.9274270875,246.74970625,322.9846681875Q247.33090625,323.0419091875,247.90850625,323.1275981875Q248.48620625,323.2132871875,249.05900625,323.3272171875Q249.63170625,323.4411481875,250.19820625,323.5830451875Q250.76470625,323.7249431875,251.32360625,323.8944671875Q251.88240625,324.0639871875,252.43230625,324.2607271875Q252.98210625000002,324.4574671875,253.52160625,324.6809471875Q254.06120625,324.9044371875,254.58910625,325.1541171875Q255.11700625,325.4038071875,255.63210625,325.6790971875Q256.14710625,325.9543871875,256.64800625,326.2546171875Q257.14890625,326.5548471875,257.63450625,326.8792971875Q258.12000625,327.2037471875,258.58910625,327.5516271875Q259.05820625,327.8995071875,259.50960625,328.2699871875Q259.96100624999997,328.6404671875,260.39370625,329.0326471875Q260.82640625,329.4248271875,261.23940625,329.8377771875Q261.65230625,330.2507171875,262.04450625,330.6834171875Q262.43670625,331.1161271875,262.80720625,331.56755718750003Q263.17760625,332.0189871875,263.52550625,332.4880571875Q263.87340625,332.9571171875,264.19780625,333.4427171875Q264.52230625,333.9282171875,264.82250625,334.4291171875Q265.12280625,334.9300171875,265.39800625,335.4451171875Q265.67330625,335.9601171875,265.92300625,336.4880171875Q266.17270625,337.0159171875,266.39620625,337.5555171875Q266.61970625,338.0950171875,266.81640625,338.6449171875Q267.01320625,339.1947171875,267.18270625,339.7536171875Q267.35220625,340.3124171875,267.49410625,340.8789171875Q267.63600625,341.44541718749997,267.74990625,342.0181171875Q267.86390625,342.5909171875,267.94950625,343.1686171875Q268.03520625,343.7463171875,268.09250625,344.3274171875Q268.14970625,344.9086171875,268.17840625,345.4919171875Q268.20700625,346.0752171875,268.20700625,346.6592171875Z" fill="#FFFFFF" fill-opacity="1"/></g><g><path d="M475.6796625,346.6592171875Q475.6796625,347.2432171875,475.6510625,347.8264171875Q475.6223625,348.4097171875,475.5651625,348.9909171875Q475.5078625,349.5721171875,475.4221625,350.1498171875Q475.3364625,350.7274171875,475.2225625,351.3002171875Q475.1086625,351.8730171875,474.9667625,352.4394171875Q474.8248625,353.0059171875,474.6553625,353.5648171875Q474.4857625,354.1236171875,474.2890625,354.6735171875Q474.0923625,355.2233171875,473.8688625,355.7629171875Q473.6453625,356.3024171875,473.3956625,356.8303171875Q473.1459625,357.35821718750003,472.8706625,357.8733171875Q472.5953625,358.3883171875,472.2951625,358.8892171875Q471.9949625,359.3901171875,471.6704625,359.8757171875Q471.3460625,360.3612171875,470.9981625,360.8303171875Q470.6502625,361.2994171875,470.2797625,361.7508171875Q469.9093625,362.20221718749997,469.5171625,362.6349171875Q469.1249625,363.0676171875,468.7120625,363.4806171875Q468.2990625,363.8935171875,467.8663625,364.2857171875Q467.43366249999997,364.6779171875,466.9822625,365.0484171875Q466.5307625,365.4189171875,466.0617625,365.7667171875Q465.5926625,366.1146171875,465.1070625,366.4391171875Q464.6215625,366.7635171875,464.1206625,367.0637171875Q463.6197625,367.3640171875,463.1046625,367.6393171875Q462.58966250000003,367.91461718749997,462.0617625,368.1642171875Q461.5338625,368.4139171875,460.9942625,368.6374171875Q460.4547625,368.8609171875,459.9048625,369.0576171875Q459.3550625,369.2544171875,458.7962625,369.4239171875Q458.2373625,369.5934171875,457.6708625,369.7353171875Q457.1043625,369.8772171875,456.5316625,369.9911171875Q455.9588625,370.1051171875,455.3811625,370.1908171875Q454.8035625,370.2765171875,454.2223625,370.3337171875Q453.6411625,370.3909171875,453.0578625,370.4196171875Q452.4745625,370.4482171875,451.8906625,370.4483171875Q451.3066625,370.4482171875,450.7233625,370.4196171875Q450.1400625,370.3909171875,449.5588625,370.3337171875Q448.9776625,370.2765171875,448.4000625,370.1908171875Q447.8223625,370.1051171875,447.2495625,369.9911171875Q446.67686249999997,369.8772171875,446.1103625,369.7353171875Q445.5438625,369.5934171875,444.9850625,369.4239171875Q444.4261625,369.2544171875,443.8763625,369.0576171875Q443.3264625,368.8609171875,442.7869625,368.6374171875Q442.2473625,368.4139171875,441.7194625,368.1642171875Q441.1915625,367.91461718749997,440.6765625,367.6393171875Q440.1614625,367.3640171875,439.6605625,367.0637171875Q439.1596625,366.7635171875,438.6741625,366.4391171875Q438.1885625,366.1146171875,437.7194925,365.7667171875Q437.2504325,365.4189171875,436.79900250000003,365.0484171875Q436.3475725,364.6779171875,435.9148625,364.2857171875Q435.4821525,363.8935171875,435.0692125,363.4806171875Q434.6562725,363.0676171875,434.2640925,362.6349171875Q433.8719025,362.20221718749997,433.5014325,361.7508171875Q433.1309525,361.2994171875,432.7830725,360.8303171875Q432.4351825,360.3612171875,432.1107425,359.8757171875Q431.7862925,359.3901171875,431.4860625,358.8892171875Q431.1858325,358.3883171875,430.9105425,357.8733171875Q430.6352525,357.35821718750003,430.3855625,356.8303171875Q430.1358825,356.3024171875,429.9123925,355.7629171875Q429.6889125,355.2233171875,429.4921725,354.6735171875Q429.2954325,354.1236171875,429.1259125,353.5648171875Q428.9563885,353.0059171875,428.8144905,352.4394171875Q428.6725925,351.8730171875,428.5586625,351.3002171875Q428.4447315,350.7274171875,428.3590435,350.1498171875Q428.2733545,349.5721171875,428.2161135,348.9909171875Q428.1588724,348.4097171875,428.1302175,347.8265171875Q428.1015625,347.2432171875,428.1015625,346.6592171875Q428.1015625,346.0752171875,428.1302175,345.4919171875Q428.1588724,344.9086171875,428.2161135,344.3274171875Q428.2733545,343.7463171875,428.3590435,343.1686171875Q428.4447315,342.5909171875,428.5586625,342.0182171875Q428.6725925,341.44541718749997,428.8144905,340.8789171875Q428.9563885,340.3124171875,429.1259125,339.7536171875Q429.2954325,339.1947171875,429.4921725,338.6449171875Q429.6889125,338.0950171875,429.9123925,337.5555171875Q430.1358825,337.0160171875,430.3855625,336.4880171875Q430.6352525,335.9601171875,430.9105425,335.4451171875Q431.1858325,334.9300171875,431.4860625,334.4291171875Q431.7862925,333.9282171875,432.1107425,333.4427171875Q432.4351825,332.9571171875,432.7830725,332.4880571875Q433.1309525,332.0189971875,433.5014325,331.5675671875Q433.8719025,331.1161371875,434.2640925,330.6834271875Q434.6562725,330.2507171875,435.0692125,329.8377771875Q435.4821525,329.4248371875,435.9148625,329.0326471875Q436.3475725,328.6404671875,436.79900250000003,328.2699871875Q437.2504325,327.8995071875,437.7194925,327.5516271875Q438.1885625,327.2037471875,438.6741625,326.8792971875Q439.1596625,326.5548471875,439.6605625,326.2546171875Q440.1614625,325.9543871875,440.6765625,325.6790971875Q441.1915625,325.4038071875,441.7194625,325.1541271875Q442.2473625,324.9044371875,442.7869625,324.6809571875Q443.3264625,324.4574671875,443.8763625,324.2607271875Q444.4261625,324.0639871875,444.9850625,323.8944671875Q445.5438625,323.7249431875,446.1103625,323.5830461875Q446.67686249999997,323.4411481875,447.2495625,323.3272171875Q447.8223625,323.2132871875,448.4000625,323.1275981875Q448.9776625,323.0419091875,449.5588625,322.9846681875Q450.1400625,322.9274271875,450.7233625,322.8987721875Q451.3066625,322.8701171875,451.8906625,322.8701171875Q452.4745625,322.8701171875,453.0578625,322.8987721875Q453.6411625,322.9274271875,454.2223625,322.9846681875Q454.8035625,323.0419091875,455.3811625,323.1275981875Q455.9588625,323.2132871875,456.5316625,323.3272171875Q457.1043625,323.4411481875,457.6708625,323.5830461875Q458.2373625,323.7249431875,458.7962625,323.8944671875Q459.3550625,324.0639871875,459.9048625,324.2607271875Q460.4547625,324.4574671875,460.9942625,324.6809571875Q461.5338625,324.9044371875,462.0617625,325.1541271875Q462.58966250000003,325.4038071875,463.1046625,325.6790971875Q463.6197625,325.9543871875,464.1206625,326.2546171875Q464.6215625,326.5548471875,465.1070625,326.8792971875Q465.5926625,327.2037471875,466.0617625,327.5516271875Q466.5307625,327.8995071875,466.9822625,328.2699871875Q467.43366249999997,328.6404671875,467.8663625,329.0326471875Q468.2990625,329.4248371875,468.7120625,329.8377771875Q469.1249625,330.2507171875,469.5171625,330.6834271875Q469.9093625,331.1161371875,470.2797625,331.5675671875Q470.6502625,332.0189971875,470.9981625,332.4880571875Q471.3460625,332.9571171875,471.6704625,333.4427171875Q471.9949625,333.9282171875,472.2951625,334.4291171875Q472.5953625,334.9300171875,472.8706625,335.4451171875Q473.1459625,335.9601171875,473.3956625,336.4880171875Q473.6453625,337.0160171875,473.8688625,337.5555171875Q474.0923625,338.0950171875,474.2890625,338.6449171875Q474.4857625,339.1947171875,474.6553625,339.7536171875Q474.8248625,340.3124171875,474.9667625,340.8789171875Q475.1086625,341.44541718749997,475.2225625,342.0182171875Q475.3364625,342.5909171875,475.4221625,343.1686171875Q475.5078625,343.7463171875,475.5651625,344.3274171875Q475.6223625,344.9086171875,475.6510625,345.4919171875Q475.6796625,346.0752171875,475.6796625,346.6592171875Z" fill="#FFFFFF" fill-opacity="1"/></g><g><path d="M451.37715625,503.74893906249997L371.53315625,518.0361390625C367.77315625,518.7196390624999,363.94515624999997,517.6943390625,361.07415625,515.2333390625C359.09215625,513.5927390625,357.72415624999996,511.4052390625,356.97315625,509.0126390625C359.70715625,508.1240390625,362.30515625,506.6884390625,364.42415625,504.7744390625L391.97315625,480.0966390625C404.00415625,469.2959390625,394.84415624999997,451.7275390625,377.13915625000004,451.7275390625L322.04105625,451.7275390625C304.33595625,451.7275390625,295.17575625,469.2959390625,307.20705625,480.0966390625L334.75585624999997,504.7744390625C336.94335624999997,506.6884390625,339.47265625,508.1240390625,342.20705625,509.0126390625C341.52345625,511.4052390625,340.08785625,513.5927390625,338.10545625,515.2333390625C335.16605625,517.6943390625,331.40625625,518.6513390625,327.64645625,518.0361390625L247.80273625,503.74893906249997L245.41015625,517.2157390625L325.25385625,531.5029390625C326.82615625,531.7763390625,328.39845625,531.9130390625,329.97065625,531.9130390625C336.12305625,531.9130390625,342.13865625,529.7939390625,346.92415625,525.7606390625C347.88115625,524.9403390625,348.76915625,524.1200390625,349.59015625,523.1630390625C350.41015625,524.0517390625,351.29915625,524.9403390625,352.25615625,525.7606390625C357.04115625,529.7939390625,363.05615625,531.9130390625,369.20915625,531.9130390625C370.78115625,531.9130390625,372.35315625,531.7763390625,373.92615624999996,531.5029390625L453.76915625000004,517.2157390625L451.37715625,503.74893906249997Z" fill="#5FB214" fill-opacity="1"/></g></g></svg>